<svg xmlns="http://www.w3.org/2000/svg" viewBox="0 0 448 512" overflow="visible">
  <g transform="translate(22, 32) scale(0.9)">
    <path fill="#ffffff" stroke="#34495e" stroke-width="32" stroke-linecap="round" stroke-linejoin="round" d="M312 0c-35.3 0-66.2 18.6-82 46.5C214.2 18.6 183.3 0 148 0 66.3 0 0 66.3 0 148c0 14.8 2.2 29 6.2 42.4 8.2 27.6 22.8 52.4 42.2 73.1l65.8 70.4c17.5 18.7 41.5 29.5 67 29.5 7.8 0 15.6-1.1 23-3.2 23.3-6.8 40.5-27.9 40.5-52.2V272c0-8.8 7.2-16 16-16s16 7.2 16 16v36.1c0 24.3 17.2 45.4 40.5 52.2 7.4 2.2 15.2 3.2 23 3.2 25.5 0 49.5-10.8 67-29.5l65.8-70.4c19.5-20.8 34-45.5 42.2-73.1 4-13.4 6.2-27.6 6.2-42.4 0-81.7-66.3-148-148-148z"/>
  </g>
</svg>